<?xml version="1.0" encoding="UTF-8"?>
<!DOCTYPE svg PUBLIC "-//W3C//DTD SVG 1.1//EN" "http://www.w3.org/Graphics/SVG/1.1/DTD/svg11.dtd">
<svg version="1.2" width="82.95mm" height="85.63mm" viewBox="3262 18174 8295 8563" preserveAspectRatio="xMidYMid" fill-rule="evenodd" stroke-width="28.222" stroke-linejoin="round" xmlns="http://www.w3.org/2000/svg" xmlns:ooo="http://xml.openoffice.org/svg/export" xmlns:xlink="http://www.w3.org/1999/xlink" xmlns:presentation="http://sun.com/xmlns/staroffice/presentation" xmlns:smil="http://www.w3.org/2001/SMIL20/" xmlns:anim="urn:oasis:names:tc:opendocument:xmlns:animation:1.0" xmlns:svg="urn:oasis:names:tc:opendocument:xmlns:svg-compatible:1.0" xml:space="preserve">
 <defs class="EmbeddedBulletChars">
  <g id="bullet-char-template-57356" transform="scale(0.00048828125,-0.00048828125)">
   <path d="M 580,1141 L 1163,571 580,0 -4,571 580,1141 Z"/>
  </g>
  <g id="bullet-char-template-57354" transform="scale(0.00048828125,-0.00048828125)">
   <path d="M 8,1128 L 1137,1128 1137,0 8,0 8,1128 Z"/>
  </g>
  <g id="bullet-char-template-10146" transform="scale(0.00048828125,-0.00048828125)">
   <path d="M 174,0 L 602,739 174,1481 1456,739 174,0 Z M 1358,739 L 309,1346 659,739 1358,739 Z"/>
  </g>
  <g id="bullet-char-template-10132" transform="scale(0.00048828125,-0.00048828125)">
   <path d="M 2015,739 L 1276,0 717,0 1260,543 174,543 174,936 1260,936 717,1481 1274,1481 2015,739 Z"/>
  </g>
  <g id="bullet-char-template-10007" transform="scale(0.00048828125,-0.00048828125)">
   <path d="M 0,-2 C -7,14 -16,27 -25,37 L 356,567 C 262,823 215,952 215,954 215,979 228,992 255,992 264,992 276,990 289,987 310,991 331,999 354,1012 L 381,999 492,748 772,1049 836,1024 860,1049 C 881,1039 901,1025 922,1006 886,937 835,863 770,784 769,783 710,716 594,584 L 774,223 C 774,196 753,168 711,139 L 727,119 C 717,90 699,76 672,76 641,76 570,178 457,381 L 164,-76 C 142,-110 111,-127 72,-127 30,-127 9,-110 8,-76 1,-67 -2,-52 -2,-32 -2,-23 -1,-13 0,-2 Z"/>
  </g>
  <g id="bullet-char-template-10004" transform="scale(0.00048828125,-0.00048828125)">
   <path d="M 285,-33 C 182,-33 111,30 74,156 52,228 41,333 41,471 41,549 55,616 82,672 116,743 169,778 240,778 293,778 328,747 346,684 L 369,508 C 377,444 397,411 428,410 L 1163,1116 C 1174,1127 1196,1133 1229,1133 1271,1133 1292,1118 1292,1087 L 1292,965 C 1292,929 1282,901 1262,881 L 442,47 C 390,-6 338,-33 285,-33 Z"/>
  </g>
  <g id="bullet-char-template-9679" transform="scale(0.00048828125,-0.00048828125)">
   <path d="M 813,0 C 632,0 489,54 383,161 276,268 223,411 223,592 223,773 276,916 383,1023 489,1130 632,1184 813,1184 992,1184 1136,1130 1245,1023 1353,916 1407,772 1407,592 1407,412 1353,268 1245,161 1136,54 992,0 813,0 Z"/>
  </g>
  <g id="bullet-char-template-8226" transform="scale(0.00048828125,-0.00048828125)">
   <path d="M 346,457 C 273,457 209,483 155,535 101,586 74,649 74,723 74,796 101,859 155,911 209,963 273,989 346,989 419,989 480,963 531,910 582,859 608,796 608,723 608,648 583,586 532,535 482,483 420,457 346,457 Z"/>
  </g>
  <g id="bullet-char-template-8211" transform="scale(0.00048828125,-0.00048828125)">
   <path d="M -4,459 L 1135,459 1135,606 -4,606 -4,459 Z"/>
  </g>
  <g id="bullet-char-template-61548" transform="scale(0.00048828125,-0.00048828125)">
   <path d="M 173,740 C 173,903 231,1043 346,1159 462,1274 601,1332 765,1332 928,1332 1067,1274 1183,1159 1299,1043 1357,903 1357,740 1357,577 1299,437 1183,322 1067,206 928,148 765,148 601,148 462,206 346,322 231,437 173,577 173,740 Z"/>
  </g>
 </defs>
 <g class="Page">
  <g class="com.sun.star.drawing.ClosedBezierShape">
   <g id="id3">
    <rect class="BoundingBox" stroke="none" fill="none" x="3262" y="18174" width="7501" height="8001"/>
    <path fill="rgb(255,255,255)" stroke="none" d="M 10564,21988 C 10466,21932 10365,21882 10261,21838 L 10261,18675 3763,18675 3763,25673 6769,25673 C 6782,25697 6795,25720 6808,25744 6897,25897 7000,26041 7115,26173 L 3513,26173 C 3469,26173 3426,26161 3388,26140 3350,26118 3318,26086 3296,26048 3275,26010 3263,25967 3263,25923 L 3263,18425 C 3263,18381 3275,18338 3296,18300 3318,18262 3350,18230 3388,18208 3426,18187 3469,18175 3513,18175 L 10511,18175 C 10555,18175 10598,18187 10636,18208 10674,18230 10706,18262 10728,18300 10749,18338 10761,18381 10761,18425 L 10761,22114 C 10697,22069 10631,22028 10564,21988 Z M 7246,22426 C 7095,22574 6963,22741 6850,22923 L 4763,22923 4763,22673 4763,22425 7246,22425 C 7246,22425 7246,22425 7246,22426 Z M 6440,24369 C 6440,24387 6440,24405 6441,24423 L 4763,24423 4763,24173 4763,23923 6476,23923 C 6452,24070 6440,24219 6440,24369 Z M 4763,19925 L 4763,19675 4763,19425 9261,19425 9261,19675 9261,19925 4763,19925 Z M 4763,21425 L 4763,21175 4763,20925 9261,20925 9261,21175 9261,21425 4763,21425 Z"/>
   </g>
  </g>
  <g class="com.sun.star.drawing.ClosedBezierShape">
   <g id="id4">
    <rect class="BoundingBox" stroke="none" fill="none" x="6820" y="22000" width="4737" height="4737"/>
    <path fill="none" stroke="rgb(255,255,255)" stroke-width="500" stroke-linejoin="round" d="M 11305,24367 C 11305,24739 11207,25104 11021,25426 10835,25748 10568,26015 10246,26201 9924,26387 9559,26485 9187,26485 8815,26485 8450,26387 8128,26201 7806,26015 7540,25748 7355,25426 7169,25104 7071,24739 7071,24367 7071,23995 7169,23630 7355,23308 7540,22986 7806,22719 8128,22533 8450,22348 8815,22251 9187,22251 9559,22251 9924,22348 10246,22533 10568,22719 10835,22986 11021,23308 11207,23630 11305,23995 11305,24367 Z"/>
   </g>
  </g>
  <g class="com.sun.star.drawing.LineShape">
   <g id="id5">
    <rect class="BoundingBox" stroke="none" fill="none" x="8962" y="22740" width="502" height="2982"/>
    <path fill="none" stroke="rgb(255,255,255)" stroke-width="500" stroke-linejoin="round" d="M 9212,22990 L 9212,25470"/>
   </g>
  </g>
  <g class="com.sun.star.drawing.LineShape">
   <g id="id6">
    <rect class="BoundingBox" stroke="none" fill="none" x="8962" y="22740" width="502" height="2982"/>
    <path fill="none" stroke="rgb(255,255,255)" stroke-width="500" stroke-linejoin="round" d="M 9212,22990 L 9212,25470"/>
   </g>
  </g>
  <g class="com.sun.star.drawing.LineShape">
   <g id="id7">
    <rect class="BoundingBox" stroke="none" fill="none" x="7750" y="23980" width="2981" height="502"/>
    <path fill="none" stroke="rgb(255,255,255)" stroke-width="500" stroke-linejoin="round" d="M 8000,24230 L 10479,24230"/>
   </g>
  </g>
 </g>
</svg>